<svg width="500" height="500" viewBox="0 0 500 500" fill="none" xmlns="http://www.w3.org/2000/svg">
<circle cx="250" cy="250" r="250" fill="#7E71FF"/>
<circle cx="396.5" cy="338.5" r="57.5" fill="#1F1F1F" stroke="#7E71FF" stroke-width="10"/>
<path d="M16.12 69.52H44.98V199H16.12V69.52ZM91.78 94.22C82.42 94.22 74.36 96.2133 67.6 100.2C61.0133 104.187 55.7267 109.04 51.74 114.76C47.7533 120.48 44.98 126.027 43.42 131.4L43.16 116.84C43.3333 114.933 43.94 112.073 44.98 108.26C46.02 104.273 47.58 99.94 49.66 95.26C51.9133 90.58 54.86 86.0733 58.5 81.74C62.3133 77.2333 66.9067 73.5933 72.28 70.82C77.8267 68.0467 84.3267 66.66 91.78 66.66V94.22ZM248.56 199H219.7V69.52H248.56V199ZM221.26 137.38L221.52 145.7C221.173 147.953 220.393 151.333 219.18 155.84C218.14 160.347 216.32 165.287 213.72 170.66C211.293 175.86 208 180.887 203.84 185.74C199.853 190.42 194.827 194.32 188.76 197.44C182.693 200.387 175.327 201.86 166.66 201.86C160.42 201.86 154.093 200.993 147.68 199.26C141.44 197.7 135.72 195.013 130.52 191.2C125.493 187.387 121.42 182.187 118.3 175.6C115.18 169.013 113.62 160.693 113.62 150.64V69.52H142.48V145.18C142.48 153.327 143.78 159.74 146.38 164.42C149.153 168.927 152.967 172.133 157.82 174.04C162.673 175.947 168.307 176.9 174.72 176.9C183.907 176.9 191.707 174.82 198.12 170.66C204.533 166.5 209.647 161.387 213.46 155.32C217.447 149.08 220.047 143.1 221.26 137.38ZM432.337 177.16L423.757 176.9L461.457 69.52H493.177L442.737 199H415.437L375.137 91.1H384.237L342.897 199H315.597L266.197 69.52H297.917L334.577 177.16H325.997L362.917 69.52H396.717L432.337 177.16ZM99.32 409.86C88.7467 409.86 79.7333 407.78 72.28 403.62C65 399.46 59.1067 394 54.6 387.24C50.2667 380.307 47.06 372.94 44.98 365.14C42.9 357.167 41.86 349.627 41.86 342.52C41.86 332.987 42.8133 324.147 44.72 316C46.8 307.853 50.0067 300.747 54.34 294.68C58.8467 288.44 64.74 283.587 72.02 280.12C79.4733 276.48 88.5733 274.66 99.32 274.66C111.453 274.66 122.373 277.607 132.08 283.5C141.787 289.22 149.5 297.193 155.22 307.42C160.94 317.473 163.8 329.173 163.8 342.52C163.8 355.867 160.853 367.653 154.96 377.88C149.24 387.933 141.527 395.82 131.82 401.54C122.113 407.087 111.28 409.86 99.32 409.86ZM90.74 385.94C99.4067 385.94 107.033 384.12 113.62 380.48C120.207 376.84 125.32 371.727 128.96 365.14C132.6 358.553 134.42 351.013 134.42 342.52C134.42 329.52 130.607 318.947 122.98 310.8C115.353 302.48 104.607 298.32 90.74 298.32C82.0733 298.32 74.2733 300.14 67.34 303.78C60.4067 307.42 54.9467 312.533 50.96 319.12C46.9733 325.533 44.98 333.333 44.98 342.52C44.98 350.84 46.8 358.293 50.44 364.88C54.08 371.467 59.28 376.667 66.04 380.48C72.8 384.12 81.0333 385.94 90.74 385.94ZM16.12 277.52H43.68L44.98 309.24V459H16.12V277.52ZM177.838 277.52H208.778L261.038 401.8L236.078 407L177.838 277.52ZM322.138 277.52L238.938 459H208.518L244.138 388.02L291.198 277.52H322.138Z" fill="white"/>
</svg>
